ffmpeg version 7.1.1 Copyright (c) 2000-2025 the FFmpeg developers
  built with Apple clang version 17.0.0 (clang-1700.0.13.5)
  configuration: --prefix=/opt/homebrew/Cellar/ffmpeg/7.1.1-with-options --enable-shared --cc=clang --host-cflags= --host-ldflags= --enable-gpl --enable-libaom --enable-libdav1d --enable-libmp3lame --enable-libopus --enable-libsnappy --enable-libtheora --enable-libvorbis --enable-libvpx --enable-libx264 --enable-libx265 --enable-libfontconfig --enable-libfreetype --enable-frei0r --enable-libass --enable-demuxer=dash --enable-opencl --enable-audiotoolbox --enable-videotoolbox --enable-neon --disable-htmlpages --enable-libcaca --enable-libfdk-aac --enable-libgsm --enable-libmodplug --enable-librtmp --enable-libsoxr --enable-libssh --enable-libtwolame --enable-libvidstab --enable-nonfree
  libavutil      59. 39.100 / 59. 39.100
  libavcodec     61. 19.101 / 61. 19.101
  libavformat    61.  7.100 / 61.  7.100
  libavdevice    61.  3.100 / 61.  3.100
  libavfilter    10.  4.100 / 10.  4.100
  libswscale      8.  3.100 /  8.  3.100
  libswresample   5.  3.100 /  5.  3.100
  libpostproc    58.  3.100 / 58.  3.100
Input #0, mp3, from 'https://tunein.cdnstream1.com/3511_96.mp3?aw_0_1st.premium=true&partnerID=BotTIStream&playerid=BotTIStream&aw_0_1st.ads_partner_alias=bot.TIStream':
  Metadata:
    icy-br          : 96
    icy-genre       : various
    icy-name        : MSNBC
    icy-url         : 
    icy-description : MSNBC
    icy-pub         : 0
    StreamTitle     : 
    StreamUrl       : 
    adw_ad          : true
    durationMilliseconds: 60421
    adId            : 63772
    insertionType   : midroll
  Duration: N/A, start: 0.000000, bitrate: 96 kb/s
  Stream #0:0: Audio: mp3 (mp3float), 44100 Hz, stereo, fltp, 96 kb/s
Stream mapping:
  Stream #0:0 -> #0:0 (mp3 (mp3float) -> pcm_s16le (native))
Press [q] to stop, [?] for help
Output #0, wav, to '/Users/rblaney-x/Projects/CDN-Benchmark-Suite/cdn-benchmark-cli/test-audio/msnbc_icecast_cdn_240s.wav':
  Metadata:
    icy-br          : 96
    icy-genre       : various
    icy-name        : MSNBC
    icy-url         : 
    icy-description : MSNBC
    icy-pub         : 0
    StreamTitle     : 
    StreamUrl       : 
    adw_ad          : true
    durationMilliseconds: 60421
    adId            : 63772
    insertionType   : midroll
    ISFT            : Lavf61.7.100
  Stream #0:0: Audio: pcm_s16le ([1][0][0][0] / 0x0001), 44100 Hz, stereo, s16, 1411 kb/s
      Metadata:
        encoder         : Lavc61.19.101 pcm_s16le
size=    1792KiB time=00:00:10.81 bitrate=1357.4kbits/s speed=21.4x    size=    2560KiB time=00:00:16.27 bitrate=1288.6kbits/s speed=16.2x    size=    3584KiB time=00:00:22.17 bitrate=1323.8kbits/s speed=14.7x    size=    5376KiB time=00:00:32.00 bitrate=1376.3kbits/s speed=15.9x    size=    5632KiB time=00:00:32.75 bitrate=1408.4kbits/s speed=  13x    size=    5632KiB time=00:00:33.51 bitrate=1376.6kbits/s speed=11.1x    size=    5888KiB time=00:00:35.13 bitrate=1372.8kbits/s speed=9.96x    size=    6144KiB time=00:00:35.91 bitrate=1401.3kbits/s speed=8.91x    size=    6144KiB time=00:00:36.33 bitrate=1385.2kbits/s speed=8.01x    size=    6144KiB time=00:00:36.75 bitrate=1369.4kbits/s speed=7.29x    size=    6400KiB time=00:00:37.53 bitrate=1396.7kbits/s speed=6.77x    size=    6400KiB time=00:00:37.95 bitrate=1381.3kbits/s speed=6.28x    size=    6400KiB time=00:00:38.40 bitrate=1365.3kbits/s speed=5.86x    size=    6656KiB time=00:00:38.73 bitrate=1407.5kbits/s speed=5.49x    size=    6656KiB time=00:00:39.57 bitrate=1377.8kbits/s speed=5.23x    size=    6656KiB time=00:00:39.91 bitrate=1366.0kbits/s speed=4.95x    size=    6912KiB time=00:00:40.35 bitrate=1403.0kbits/s speed=4.71x    size=    6912KiB time=00:00:40.77 bitrate=1388.6kbits/s speed=4.49x    size=    6912KiB time=00:00:41.53 bitrate=1363.3kbits/s speed=4.33x    size=    7168KiB time=00:00:41.97 bitrate=1398.8kbits/s speed=4.16x    size=    7168KiB time=00:00:42.31 bitrate=1387.6kbits/s speed=   4x    size=    7168KiB time=00:00:42.73 bitrate=1374.0kbits/s speed=3.85x    size=    7424KiB time=00:00:43.52 bitrate=1397.5kbits/s speed=3.75x    size=    7424KiB time=00:00:43.93 bitrate=1384.2kbits/s speed=3.63x    size=    7424KiB time=00:00:44.35 bitrate=1371.1kbits/s speed=3.52x    size=    7680KiB time=00:00:45.13 bitrate=1393.8kbits/s speed=3.44x    size=    7680KiB time=00:00:45.55 bitrate=1381.0kbits/s speed=3.35x    size=    7680KiB time=00:00:45.97 bitrate=1368.4kbits/s speed=3.26x    size=    7936KiB time=00:00:46.31 bitrate=1403.7kbits/s speed=3.17x    size=    7936KiB time=00:00:47.09 bitrate=1380.3kbits/s speed=3.11x    size=    7936KiB time=00:00:47.51 bitrate=1368.2kbits/s speed=3.04x    size=    8192KiB time=00:00:47.93 bitrate=1400.0kbits/s speed=2.97x    size=    8192KiB time=00:00:48.27 bitrate=1390.2kbits/s speed= 2.9x    size=    8448KiB time=00:00:49.13 bitrate=1408.4kbits/s speed=2.87x    size=    8448KiB time=00:00:49.55 bitrate=1396.6kbits/s speed=2.81x    size=    8448KiB time=00:00:49.92 bitrate=1386.3kbits/s speed=2.75x    size=    8448KiB time=00:00:50.33 bitrate=1374.8kbits/s speed= 2.7x    size=    8704KiB time=00:00:51.20 bitrate=1392.6kbits/s speed=2.67x    size=    8704KiB time=00:00:51.53 bitrate=1383.5kbits/s speed=2.62x    size=    8704KiB time=00:00:51.95 bitrate=1372.3kbits/s speed=2.58x    size=    8960KiB time=00:00:52.29 bitrate=1403.5kbits/s speed=2.53x    size=    8960KiB time=00:00:53.15 bitrate=1380.8kbits/s speed=2.51x    size=    8960KiB time=00:00:53.49 bitrate=1372.0kbits/s speed=2.47x    size=    9216KiB time=00:00:53.91 bitrate=1400.3kbits/s speed=2.43x    size=    9216KiB time=00:00:54.67 bitrate=1380.9kbits/s speed=2.41x    size=    9472KiB time=00:00:55.11 bitrate=1407.8kbits/s speed=2.38x    size=    9472KiB time=00:00:55.53 bitrate=1397.2kbits/s speed=2.34x    size=    9472KiB time=00:00:55.95 bitrate=1386.8kbits/s speed=2.31x    size=    9728KiB time=00:00:56.73 bitrate=1404.6kbits/s speed= 2.3x    size=    9728KiB time=00:00:57.15 bitrate=1394.3kbits/s speed=2.27x    size=    9728KiB time=00:00:57.49 bitrate=1386.1kbits/s speed=2.24x    size=    9728KiB time=00:00:57.93 bitrate=1375.4kbits/s speed=2.21x    size=    9984KiB time=00:00:58.69 bitrate=1393.4kbits/s speed= 2.2x    size=    9984KiB time=00:00:59.11 bitrate=1383.6kbits/s speed=2.17x    size=   10240KiB time=00:00:59.55 bitrate=1408.4kbits/s speed=2.15x    size=   10240KiB time=00:00:59.89 bitrate=1400.5kbits/s speed=2.12x    size=   10240KiB time=00:01:00.16 bitrate=1394.4kbits/s speed=2.09x    size=   10496KiB time=00:01:00.99 bitrate=1409.7kbits/s speed=2.09x    size=   10496KiB time=00:01:01.51 bitrate=1397.7kbits/s speed=2.07x    size=   10496KiB time=00:01:01.93 bitrate=1388.3kbits/s speed=2.05x    size=   10752KiB time=00:01:02.72 bitrate=1404.3kbits/s speed=2.04x    size=   10752KiB time=00:01:03.13 bitrate=1395.0kbits/s speed=2.02x    size=   10752KiB time=00:01:03.55 bitrate=1385.9kbits/s speed=   2x    size=   10752KiB time=00:01:03.89 bitrate=1378.5kbits/s speed=1.98x    size=   11008KiB time=00:01:04.75 bitrate=1392.5kbits/s speed=1.98x    size=   11008KiB time=00:01:05.09 bitrate=1385.3kbits/s speed=1.96x    size=   11264KiB time=00:01:05.51 bitrate=1408.4kbits/s speed=1.94x    size=   11264KiB time=00:01:06.29 bitrate=1391.8kbits/s speed=1.93x    size=   11264KiB time=00:01:06.71 bitrate=1383.1kbits/s speed=1.92x    size=   11520KiB time=00:01:07.13 bitrate=1405.7kbits/s speed= 1.9x    size=   11520KiB time=00:01:07.47 bitrate=1398.6kbits/s speed=1.89x    size=   11520KiB time=00:01:08.33 bitrate=1381.0kbits/s speed=1.88x    size=   11776KiB time=00:01:08.67 bitrate=1404.7kbits/s speed=1.87x    size=   11776KiB time=00:01:09.12 bitrate=1395.7kbits/s speed=1.85x    size=   11776KiB time=00:01:09.53 bitrate=1387.3kbits/s speed=1.84x    size=   12032KiB time=00:01:10.29 bitrate=1402.2kbits/s speed=1.83x    size=   12032KiB time=00:01:10.73 bitrate=1393.4kbits/s speed=1.82x    size=   12032KiB time=00:01:11.07 bitrate=1386.7kbits/s speed=1.81x    size=   12288KiB time=00:01:11.49 bitrate=1407.9kbits/s speed= 1.8x    size=   12288KiB time=00:01:12.25 bitrate=1393.2kbits/s speed=1.79x    size=   12288KiB time=00:01:12.69 bitrate=1384.7kbits/s speed=1.78x    size=   12544KiB time=00:01:13.11 bitrate=1405.4kbits/s speed=1.77x    size=   12544KiB time=00:01:13.53 bitrate=1397.4kbits/s speed=1.76x    size=   12544KiB time=00:01:14.31 bitrate=1382.7kbits/s speed=1.75x    size=   12800KiB time=00:01:14.73 bitrate=1403.0kbits/s speed=1.74x    size=   12800KiB time=00:01:15.07 bitrate=1396.7kbits/s speed=1.73x    size=   12800KiB time=00:01:15.52 bitrate=1388.5kbits/s speed=1.72x    size=   13056KiB time=00:01:16.27 bitrate=1402.2kbits/s speed=1.72x    size=   13056KiB time=00:01:16.69 bitrate=1394.5kbits/s speed=1.71x    size=   13056KiB time=00:01:17.13 bitrate=1386.5kbits/s speed= 1.7x    size=   13312KiB time=00:01:17.89 bitrate=1399.9kbits/s speed= 1.7x    size=   13312KiB time=00:01:18.31 bitrate=1392.5kbits/s speed=1.69x    size=   13312KiB time=00:01:18.65 bitrate=1386.5kbits/s speed=1.68x    size=   13568KiB time=00:01:19.09 bitrate=1405.2kbits/s speed=1.67x    size=   13568KiB time=00:01:19.93 bitrate=1390.5kbits/s speed=1.67x    size=   13824KiB time=00:01:20.27 bitrate=1410.7kbits/s speed=1.66x    size=   13824KiB time=00:01:20.71 bitrate=1403.0kbits/s speed=1.65x    size=   13824KiB time=00:01:21.13 bitrate=1395.8kbits/s speed=1.64x    size=   14080KiB time=00:01:21.92 bitrate=1408.0kbits/s speed=1.64x    size=   14080KiB time=00:01:22.25 bitrate=1402.2kbits/s speed=1.63x    size=   14080KiB time=00:01:22.67 bitrate=1395.1kbits/s speed=1.62x    size=   14080KiB time=00:01:23.09 bitrate=1388.1kbits/s speed=1.62x    size=   14336KiB time=00:01:23.87 bitrate=1400.1kbits/s speed=1.62x    size=   14336KiB time=00:01:24.29 bitrate=1393.2kbits/s speed=1.61x    size=   14336KiB time=00:01:24.71 bitrate=1386.3kbits/s speed= 1.6x    size=   14592KiB time=00:01:25.05 bitrate=1405.4kbits/s speed=1.59x    size=   14592KiB time=00:01:25.91 bitrate=1391.3kbits/s speed=1.59x    size=   14848KiB time=00:01:26.25 bitrate=1410.2kbits/s speed=1.58x    size=   14848KiB time=00:01:26.67 bitrate=1403.4kbits/s speed=1.58x    size=   14848KiB time=00:01:27.45 bitrate=1390.8kbits/s speed=1.58x    size=   15104KiB time=00:01:27.87 bitrate=1408.0kbits/s speed=1.57x    size=   15104KiB time=00:01:28.32 bitrate=1401.0kbits/s speed=1.56x    size=   15104KiB time=00:01:28.65 bitrate=1395.6kbits/s speed=1.56x    size=   15360KiB time=00:01:29.49 bitrate=1406.0kbits/s speed=1.56x    size=   15360KiB time=00:01:29.83 bitrate=1400.7kbits/s speed=1.55x    size=   15360KiB time=00:01:30.27 bitrate=1393.8kbits/s speed=1.54x    size=   15616KiB time=00:01:30.69 bitrate=1410.5kbits/s speed=1.54x    size=   15616KiB time=00:01:31.45 bitrate=1398.8kbits/s speed=1.54x    size=   15616KiB time=00:01:31.89 bitrate=1392.0kbits/s speed=1.53x    size=   15872KiB time=00:01:32.31 bitrate=1408.4kbits/s speed=1.53x    size=   15872KiB time=00:01:32.65 bitrate=1403.3kbits/s speed=1.52x    size=   15872KiB time=00:01:33.51 bitrate=1390.4kbits/s speed=1.52x    size=   16128KiB time=00:01:33.85 bitrate=1407.7kbits/s speed=1.51x    size=   16128KiB time=00:01:34.27 bitrate=1401.4kbits/s speed=1.51x    size=   16128KiB time=00:01:34.69 bitrate=1395.2kbits/s speed= 1.5x    size=   16384KiB time=00:01:35.47 bitrate=1405.8kbits/s speed= 1.5x    size=   16384KiB time=00:01:35.89 bitrate=1399.6kbits/s speed= 1.5x    size=   16384KiB time=00:01:36.23 bitrate=1394.7kbits/s speed=1.49x    size=   16640KiB time=00:01:36.67 bitrate=1410.0kbits/s speed=1.49x    size=   16640KiB time=00:01:37.51 bitrate=1397.9kbits/s speed=1.49x    size=   16640KiB time=00:01:37.85 bitrate=1393.0kbits/s speed=1.48x    size=   16896KiB time=00:01:38.29 bitrate=1408.1kbits/s speed=1.48x    size=   16896KiB time=00:01:39.05 bitrate=1397.3kbits/s speed=1.48x    size=   16896KiB time=00:01:39.47 bitrate=1391.4kbits/s speed=1.47x    size=   17152KiB time=00:01:39.91 bitrate=1406.2kbits/s speed=1.47x    size=   17152KiB time=00:01:40.25 bitrate=1401.5kbits/s speed=1.46x    size=   17152KiB time=00:01:40.88 bitrate=1392.8kbits/s speed=1.46x    size=   17408KiB time=00:01:41.45 bitrate=1405.5kbits/s speed=1.46x    size=   17408KiB time=00:01:41.87 bitrate=1399.8kbits/s speed=1.45x    size=   17408KiB time=00:01:42.29 bitrate=1394.1kbits/s speed=1.45x    size=   17664KiB time=00:01:43.07 bitrate=1403.8kbits/s speed=1.45x    size=   17664KiB time=00:01:43.49 bitrate=1398.1kbits/s speed=1.45x    size=   17664KiB time=00:01:43.83 bitrate=1393.6kbits/s speed=1.44x    size=   17920KiB time=00:01:44.25 bitrate=1408.1kbits/s speed=1.44x    size=   17920KiB time=00:01:45.03 bitrate=1397.6kbits/s speed=1.44x    size=   17920KiB time=00:01:45.45 bitrate=1392.1kbits/s speed=1.43x    size=   18176KiB time=00:01:45.87 bitrate=1406.4kbits/s speed=1.43x    size=   18176KiB time=00:01:46.21 bitrate=1401.9kbits/s speed=1.42x    size=   18432KiB time=00:01:47.07 bitrate=1410.2kbits/s speed=1.43x    size=   18432KiB time=00:01:47.49 bitrate=1404.7kbits/s speed=1.42x    size=   18432KiB time=00:01:47.85 bitrate=1399.9kbits/s speed=1.42x    size=   18432KiB time=00:01:48.27 bitrate=1394.5kbits/s speed=1.41x    size=   18688KiB time=00:01:49.03 bitrate=1404.1kbits/s speed=1.41x    size=   18688KiB time=00:01:49.47 bitrate=1398.4kbits/s speed=1.41x    size=   18688KiB time=00:01:49.89 bitrate=1393.0kbits/s speed=1.41x    size=   18944KiB time=00:01:50.65 bitrate=1402.5kbits/s speed=1.41x    size=   18944KiB time=00:01:51.09 bitrate=1396.9kbits/s speed= 1.4x    size=   18944KiB time=00:01:51.43 bitrate=1392.6kbits/s speed= 1.4x    size=   19200KiB time=00:01:51.85 bitrate=1406.1kbits/s speed= 1.4x    size=   19200KiB time=00:01:52.61 bitrate=1396.7kbits/s speed= 1.4x    size=   19456KiB time=00:01:53.05 bitrate=1409.8kbits/s speed=1.39x    size=   19456KiB time=00:01:53.47 bitrate=1404.6kbits/s speed=1.39x    size=   19456KiB time=00:01:53.89 bitrate=1399.4kbits/s speed=1.39x    size=   19712KiB time=00:01:54.67 bitrate=1408.1kbits/s speed=1.39x    size=   19712KiB time=00:01:55.09 bitrate=1403.0kbits/s speed=1.38x    size=   19712KiB time=00:01:55.43 bitrate=1398.9kbits/s speed=1.38x    size=   19712KiB time=00:01:55.87 bitrate=1393.5kbits/s speed=1.38x    size=   19968KiB time=00:01:56.63 bitrate=1402.5kbits/s speed=1.38x    size=   19968KiB time=00:01:57.05 bitrate=1397.4kbits/s speed=1.37x    size=   20224KiB time=00:01:57.49 bitrate=1410.0kbits/s speed=1.37x    size=   20224KiB time=00:01:57.83 bitrate=1406.0kbits/s speed=1.37x    size=   20224KiB time=00:01:58.67 bitrate=1396.0kbits/s speed=1.37x    size=   20480KiB time=00:01:59.01 bitrate=1409.7kbits/s speed=1.36x    size=   20480KiB time=00:01:59.45 bitrate=1404.4kbits/s speed=1.36x    size=   20480KiB time=00:01:59.87 bitrate=1399.5kbits/s speed=1.36x    size=   20736KiB time=00:02:00.65 bitrate=1407.8kbits/s speed=1.36x    size=   20736KiB time=00:02:01.07 bitrate=1403.0kbits/s speed=1.36x    size=   20736KiB time=00:02:01.41 bitrate=1399.1kbits/s speed=1.35x    size=   20992KiB time=00:02:02.27 bitrate=1406.3kbits/s speed=1.36x    size=   20992KiB time=00:02:02.61 bitrate=1402.4kbits/s speed=1.35x    size=   20992KiB time=00:02:03.03 bitrate=1397.7kbits/s speed=1.35x    size=   21248KiB time=00:02:03.45 bitrate=1409.9kbits/s speed=1.35x    size=   21248KiB time=00:02:04.23 bitrate=1401.0kbits/s speed=1.35x    size=   21248KiB time=00:02:04.65 bitrate=1396.3kbits/s speed=1.34x    size=   21504KiB time=00:02:05.07 bitrate=1408.4kbits/s speed=1.34x    size=   21504KiB time=00:02:05.41 bitrate=1404.6kbits/s speed=1.34x    size=   21504KiB time=00:02:06.27 bitrate=1395.0kbits/s speed=1.34x    size=   21760KiB time=00:02:06.61 bitrate=1407.9kbits/s speed=1.34x    size=   21760KiB time=00:02:07.05 bitrate=1402.9kbits/s speed=1.33x    size=   21760KiB time=00:02:07.47 bitrate=1398.3kbits/s speed=1.33x    size=   22016KiB time=00:02:08.23 bitrate=1406.4kbits/s speed=1.33x    size=   22016KiB time=00:02:08.67 bitrate=1401.6kbits/s speed=1.33x    size=   22016KiB time=00:02:09.01 bitrate=1397.9kbits/s speed=1.33x    size=   22272KiB time=00:02:09.43 bitrate=1409.6kbits/s speed=1.32x    size=   22272KiB time=00:02:10.19 bitrate=1401.4kbits/s speed=1.32x    size=   22272KiB time=00:02:10.63 bitrate=1396.6kbits/s speed=1.32x    size=   22528KiB time=00:02:11.05 bitrate=1408.2kbits/s speed=1.32x    size=   22528KiB time=00:02:11.47 bitrate=1403.7kbits/s speed=1.32x    size=   22528KiB time=00:02:12.25 bitrate=1395.4kbits/s speed=1.32x    size=   22784KiB time=00:02:12.67 bitrate=1406.8kbits/s speed=1.32x    size=   22784KiB time=00:02:13.01 bitrate=1403.2kbits/s speed=1.31x    size=   23040KiB time=00:02:13.87 bitrate=1409.8kbits/s speed=1.31x    size=   23040KiB time=00:02:14.21 bitrate=1406.3kbits/s speed=1.31x    size=   23040KiB time=00:02:14.63 bitrate=1401.9kbits/s speed=1.31x    size=   23040KiB time=00:02:14.97 bitrate=1398.4kbits/s speed=1.31x    size=   23296KiB time=00:02:15.83 bitrate=1404.9kbits/s speed=1.31x    size=   23296KiB time=00:02:16.25 bitrate=1400.6kbits/s speed=1.31x    size=   23296KiB time=00:02:16.59 bitrate=1397.1kbits/s speed= 1.3x    size=   23552KiB time=00:02:17.03 bitrate=1407.9kbits/s speed= 1.3x    size=   23552KiB time=00:02:17.87 bitrate=1399.4kbits/s speed= 1.3x    size=   23552KiB time=00:02:18.21 bitrate=1395.9kbits/s speed= 1.3x    size=   23808KiB time=00:02:18.65 bitrate=1406.6kbits/s speed= 1.3x    size=   23808KiB time=00:02:18.99 bitrate=1403.2kbits/s speed=1.29x    size=   24064KiB time=00:02:19.85 bitrate=1409.5kbits/s speed= 1.3x    size=   24064KiB time=00:02:20.19 bitrate=1406.1kbits/s speed=1.29x    size=   24064KiB time=00:02:20.61 bitrate=1401.9kbits/s speed=1.29x    size=   24064KiB time=00:02:21.03 bitrate=1397.8kbits/s speed=1.29x    size=   24320KiB time=00:02:21.81 bitrate=1404.8kbits/s speed=1.29x    size=   24320KiB time=00:02:22.23 bitrate=1400.7kbits/s speed=1.29x    size=   24320KiB time=00:02:22.65 bitrate=1396.6kbits/s speed=1.29x    size=   24576KiB time=00:02:22.99 bitrate=1407.9kbits/s speed=1.28x    size=   24576KiB time=00:02:23.85 bitrate=1399.5kbits/s speed=1.29x    size=   24832KiB time=00:02:24.19 bitrate=1410.7kbits/s speed=1.28x    size=   24832KiB time=00:02:24.61 bitrate=1406.7kbits/s speed=1.28x    size=   24832KiB time=00:02:25.05 bitrate=1402.4kbits/s speed=1.28x    size=   25088KiB time=00:02:25.81 bitrate=1409.5kbits/s speed=1.28x    size=   25088KiB time=00:02:26.25 bitrate=1405.2kbits/s speed=1.28x    size=   25088KiB time=00:02:26.59 bitrate=1401.9kbits/s speed=1.28x    size=   25344KiB time=00:02:27.43 bitrate=1408.2kbits/s speed=1.28x    size=   25344KiB time=00:02:27.77 bitrate=1405.0kbits/s speed=1.27x    size=   25344KiB time=00:02:28.21 bitrate=1400.8kbits/s speed=1.27x    size=   25600KiB time=00:02:28.63 bitrate=1410.9kbits/s speed=1.27x    size=   25600KiB time=00:02:29.39 bitrate=1403.8kbits/s speed=1.27x    size=   25600KiB time=00:02:29.83 bitrate=1399.6kbits/s speed=1.27x    size=   25856KiB time=00:02:30.25 bitrate=1409.7kbits/s speed=1.27x    size=   25856KiB time=00:02:30.59 bitrate=1406.5kbits/s speed=1.27x    size=   25856KiB time=00:02:31.45 bitrate=1398.5kbits/s speed=1.27x    size=   26112KiB time=00:02:31.79 bitrate=1409.2kbits/s speed=1.27x    size=   26112KiB time=00:02:32.21 bitrate=1405.3kbits/s speed=1.26x    size=   26112KiB time=00:02:32.65 bitrate=1401.2kbits/s speed=1.26x    size=   26368KiB time=00:02:33.41 bitrate=1408.0kbits/s speed=1.26x    size=   26368KiB time=00:02:33.83 bitrate=1404.1kbits/s speed=1.26x    size=   26368KiB time=00:02:34.17 bitrate=1401.1kbits/s speed=1.26x    size=   26624KiB time=00:02:34.61 bitrate=1410.6kbits/s speed=1.26x    size=   26624KiB time=00:02:35.45 bitrate=1403.0kbits/s speed=1.26x    size=   26624KiB time=00:02:35.79 bitrate=1399.9kbits/s speed=1.26x    size=   26880KiB time=00:02:36.23 bitrate=1409.4kbits/s speed=1.26x    size=   26880KiB time=00:02:36.99 bitrate=1402.6kbits/s speed=1.26x    size=   26880KiB time=00:02:37.41 bitrate=1398.9kbits/s speed=1.25x    size=   27136KiB time=00:02:37.77 bitrate=1408.9kbits/s speed=1.25x    size=   27136KiB time=00:02:38.19 bitrate=1405.2kbits/s speed=1.25x    size=   27136KiB time=00:02:38.61 bitrate=1401.5kbits/s speed=1.25x    size=   27392KiB time=00:02:39.39 bitrate=1407.8kbits/s speed=1.25x    size=   27392KiB time=00:02:39.81 bitrate=1404.1kbits/s speed=1.25x    size=   27392KiB time=00:02:40.23 bitrate=1400.4kbits/s speed=1.25x    size=   27648KiB time=00:02:41.01 bitrate=1406.6kbits/s speed=1.25x    size=   27648KiB time=00:02:41.43 bitrate=1403.0kbits/s speed=1.25x    size=   27648KiB time=00:02:41.85 bitrate=1399.4kbits/s speed=1.24x    size=   27904KiB time=00:02:42.19 bitrate=1409.4kbits/s speed=1.24x    size=   27904KiB time=00:02:42.97 bitrate=1402.6kbits/s speed=1.24x    size=   27904KiB time=00:02:43.39 bitrate=1399.0kbits/s speed=1.24x    size=   28160KiB time=00:02:43.81 bitrate=1408.2kbits/s speed=1.24x    size=   28160KiB time=00:02:44.17 bitrate=1405.1kbits/s speed=1.24x    size=   28416KiB time=00:02:45.01 bitrate=1410.7kbits/s speed=1.24x    size=   28416KiB time=00:02:45.35 bitrate=1407.8kbits/s speed=1.24x    size=   28416KiB time=00:02:45.79 bitrate=1404.0kbits/s speed=1.24x    size=   28416KiB time=00:02:46.21 bitrate=1400.5kbits/s speed=1.24x    size=   28672KiB time=00:02:46.97 bitrate=1406.7kbits/s speed=1.24x    size=   28672KiB time=00:02:47.41 bitrate=1403.0kbits/s speed=1.24x    size=   28672KiB time=00:02:47.83 bitrate=1399.5kbits/s speed=1.23x    size=   28928KiB time=00:02:48.59 bitrate=1405.6kbits/s speed=1.23x    size=   28928KiB time=00:02:48.93 bitrate=1402.8kbits/s speed=1.23x    size=   28928KiB time=00:02:49.37 bitrate=1399.1kbits/s speed=1.23x    size=   29184KiB time=00:02:49.79 bitrate=1408.0kbits/s speed=1.23x    size=   29184KiB time=00:02:50.57 bitrate=1401.5kbits/s speed=1.23x    size=   29440KiB time=00:02:50.99 bitrate=1410.4kbits/s speed=1.23x    size=   29440KiB time=00:02:51.41 bitrate=1406.9kbits/s speed=1.23x    size=   29440KiB time=00:02:51.75 bitrate=1404.2kbits/s speed=1.23x    size=   29696KiB time=00:02:52.61 bitrate=1409.3kbits/s speed=1.23x    size=   29696KiB time=00:02:53.03 bitrate=1405.9kbits/s speed=1.23x    size=   29696KiB time=00:02:53.37 bitrate=1403.1kbits/s speed=1.22x    size=   29696KiB time=00:02:53.81 bitrate=1399.6kbits/s speed=1.22x    size=   29952KiB time=00:02:54.57 bitrate=1405.5kbits/s speed=1.22x    size=   29952KiB time=00:02:54.99 bitrate=1402.1kbits/s speed=1.22x    size=   29952KiB time=00:02:55.33 bitrate=1399.4kbits/s speed=1.22x    size=   30208KiB time=00:02:55.77 bitrate=1407.8kbits/s speed=1.22x    size=   30208KiB time=00:02:56.61 bitrate=1401.2kbits/s speed=1.22x    size=   30464KiB time=00:02:56.97 bitrate=1410.1kbits/s speed=1.22x    size=   30464KiB time=00:02:57.39 bitrate=1406.8kbits/s speed=1.22x    size=   30464KiB time=00:02:57.81 bitrate=1403.5kbits/s speed=1.22x    size=   30720KiB time=00:02:58.59 bitrate=1409.1kbits/s speed=1.22x    size=   30720KiB time=00:02:59.01 bitrate=1405.8kbits/s speed=1.22x    size=   30720KiB time=00:02:59.35 bitrate=1403.1kbits/s speed=1.21x    size=   30976KiB time=00:03:00.21 bitrate=1408.0kbits/s speed=1.22x    size=   30976KiB time=00:03:00.55 bitrate=1405.4kbits/s speed=1.21x    size=   30976KiB time=00:03:00.97 bitrate=1402.1kbits/s speed=1.21x    size=   31232KiB time=00:03:01.39 bitrate=1410.5kbits/s speed=1.21x    size=   31232KiB time=00:03:02.17 bitrate=1404.4kbits/s speed=1.21x    size=   31232KiB time=00:03:02.59 bitrate=1401.2kbits/s speed=1.21x    size=   31488KiB time=00:03:03.01 bitrate=1409.5kbits/s speed=1.21x    size=   31488KiB time=00:03:03.37 bitrate=1406.6kbits/s speed=1.21x    size=   31488KiB time=00:03:03.79 bitrate=1403.4kbits/s speed=1.21x    size=   31744KiB time=00:03:04.55 bitrate=1409.0kbits/s speed=1.21x    size=   31744KiB time=00:03:04.99 bitrate=1405.7kbits/s speed=1.21x    size=   31744KiB time=00:03:05.41 bitrate=1402.5kbits/s speed=1.21x    size=   32000KiB time=00:03:06.17 bitrate=1408.1kbits/s speed=1.21x    size=   32000KiB time=00:03:06.61 bitrate=1404.7kbits/s speed=1.21x    size=   32000KiB time=00:03:06.95 bitrate=1402.2kbits/s speed= 1.2x    size=   32256KiB time=00:03:07.37 bitrate=1410.2kbits/s speed= 1.2x    size=   32256KiB time=00:03:08.13 bitrate=1404.5kbits/s speed= 1.2x    size=   32256KiB time=00:03:08.57 bitrate=1401.2kbits/s speed= 1.2x    size=   32512KiB time=00:03:08.99 bitrate=1409.2kbits/s speed= 1.2x    size=   32512KiB time=00:03:09.41 bitrate=1406.1kbits/s speed= 1.2x    size=   32512KiB time=00:03:10.19 bitrate=1400.3kbits/s speed= 1.2x    size=   32768KiB time=00:03:10.61 bitrate=1408.3kbits/s speed= 1.2x    size=   32768KiB time=00:03:10.95 bitrate=1405.8kbits/s speed= 1.2x    size=   33024KiB time=00:03:11.81 bitrate=1410.4kbits/s speed= 1.2x    size=   33024KiB time=00:03:12.15 bitrate=1407.9kbits/s speed= 1.2x    size=   33024KiB time=00:03:12.57 bitrate=1404.8kbits/s speed= 1.2x    size=   33024KiB time=00:03:13.01 bitrate=1401.6kbits/s speed= 1.2x    size=   33280KiB time=00:03:13.35 bitrate=1410.0kbits/s speed= 1.2x    size=   33280KiB time=00:03:14.19 bitrate=1403.9kbits/s speed= 1.2x    size=   33280KiB time=00:03:14.53 bitrate=1401.5kbits/s speed= 1.2x    size=   33536KiB time=00:03:14.97 bitrate=1409.0kbits/s speed=1.19x    size=   33536KiB time=00:03:15.81 bitrate=1403.0kbits/s speed= 1.2x    size=   33536KiB time=00:03:16.17 bitrate=1400.4kbits/s speed=1.19x    size=   33792KiB time=00:03:16.59 bitrate=1408.1kbits/s speed=1.19x    size=   33792KiB time=00:03:17.01 bitrate=1405.1kbits/s speed=1.19x    size=   34048KiB time=00:03:17.79 bitrate=1410.1kbits/s speed=1.19x    size=   34048KiB time=00:03:18.13 bitrate=1407.7kbits/s speed=1.19x    size=   34048KiB time=00:03:18.55 bitrate=1404.7kbits/s speed=1.19x    size=   34048KiB time=00:03:18.97 bitrate=1401.8kbits/s speed=1.19x    size=   34304KiB time=00:03:19.75 bitrate=1406.8kbits/s speed=1.19x    size=   34304KiB time=00:03:20.17 bitrate=1403.9kbits/s speed=1.19x    size=   34304KiB time=00:03:20.59 bitrate=1400.9kbits/s speed=1.19x    size=   34560KiB time=00:03:20.93 bitrate=1409.0kbits/s speed=1.19x    size=   34560KiB time=00:03:21.79 bitrate=1403.0kbits/s speed=1.19x    size=   34816KiB time=00:03:22.13 bitrate=1411.0kbits/s speed=1.19x    size=   34816KiB time=00:03:22.57 bitrate=1407.9kbits/s speed=1.19x    size=   34816KiB time=00:03:23.20 bitrate=1403.6kbits/s speed=1.19x    size=   35072KiB time=00:03:23.75 bitrate=1410.1kbits/s speed=1.19x    size=   35072KiB time=00:03:24.19 bitrate=1407.0kbits/s speed=1.18x    size=   35072KiB time=00:03:24.53 bitrate=1404.7kbits/s speed=1.18x    size=   35328KiB time=00:03:25.37 bitrate=1409.2kbits/s speed=1.18x    size=   35328KiB time=00:03:25.71 bitrate=1406.8kbits/s speed=1.18x    size=   35328KiB time=00:03:26.15 bitrate=1403.8kbits/s speed=1.18x    size=   35328KiB time=00:03:26.57 bitrate=1401.0kbits/s speed=1.18x    size=   35584KiB time=00:03:27.25 bitrate=1406.5kbits/s speed=1.18x    size=   35584KiB time=00:03:27.25 bitrate=1406.5kbits/s speed=1.18x    size=   35584KiB time=00:03:27.25 bitrate=1406.5kbits/s speed=1.18x    size=   35584KiB time=00:03:27.25 bitrate=1406.5kbits/s speed=1.17x    size=   35584KiB time=00:03:27.25 bitrate=1406.5kbits/s speed=1.17x    size=   35584KiB time=00:03:27.25 bitrate=1406.5kbits/s speed=1.17x    size=   35584KiB time=00:03:27.25 bitrate=1406.5kbits/s speed=1.16x    size=   35584KiB time=00:03:27.25 bitrate=1406.5kbits/s speed=1.16x    size=   35584KiB time=00:03:27.25 bitrate=1406.5kbits/s speed=1.16x    size=   35584KiB time=00:03:27.25 bitrate=1406.5kbits/s speed=1.15x    size=   35584KiB time=00:03:27.25 bitrate=1406.5kbits/s speed=1.15x    size=   35840KiB time=00:03:28.11 bitrate=1410.7kbits/s speed=1.15x    size=   36096KiB time=00:03:29.73 bitrate=1409.9kbits/s speed=1.16x    size=   36096KiB time=00:03:30.49 bitrate=1404.8kbits/s speed=1.16x    size=   36352KiB time=00:03:31.35 bitrate=1409.0kbits/s speed=1.16x    size=   36608KiB time=00:03:32.97 bitrate=1408.1kbits/s speed=1.16x    size=   36608KiB time=00:03:33.73 bitrate=1403.1kbits/s speed=1.17x    size=   36864KiB time=00:03:34.59 bitrate=1407.2kbits/s speed=1.17x    size=   36864KiB time=00:03:35.37 bitrate=1402.1kbits/s speed=1.17x    size=   37120KiB time=00:03:36.89 bitrate=1402.0kbits/s speed=1.17x    size=   37376KiB time=00:03:37.33 bitrate=1408.8kbits/s speed=1.17x    size=   37376KiB time=00:03:37.75 bitrate=1406.1kbits/s speed=1.17x    size=   37376KiB time=00:03:38.17 bitrate=1403.4kbits/s speed=1.17x    size=   37632KiB time=00:03:38.95 bitrate=1407.9kbits/s speed=1.17x    size=   37632KiB time=00:03:39.29 bitrate=1405.8kbits/s speed=1.17x    size=   37632KiB time=00:03:39.29 bitrate=1405.8kbits/s speed=1.17x    size=   37632KiB time=00:03:39.29 bitrate=1405.8kbits/s speed=1.16x    size=   37632KiB time=00:03:39.29 bitrate=1405.8kbits/s speed=1.16x    size=   37632KiB time=00:03:39.29 bitrate=1405.8kbits/s speed=1.16x    size=   37632KiB time=00:03:39.29 bitrate=1405.8kbits/s speed=1.15x    size=   37632KiB time=00:03:39.29 bitrate=1405.8kbits/s speed=1.15x    size=   37632KiB time=00:03:39.29 bitrate=1405.8kbits/s speed=1.15x    size=   37632KiB time=00:03:39.29 bitrate=1405.8kbits/s speed=1.15x    size=   37632KiB time=00:03:39.29 bitrate=1405.8kbits/s speed=1.14x    size=   37632KiB time=00:03:39.29 bitrate=1405.8kbits/s speed=1.14x    size=   37888KiB time=00:03:40.05 bitrate=1410.5kbits/s speed=1.14x    size=   37888KiB time=00:03:40.91 bitrate=1405.0kbits/s speed=1.14x    size=   38144KiB time=00:03:41.67 bitrate=1409.6kbits/s speed=1.14x    size=   38400KiB time=00:03:43.29 bitrate=1408.8kbits/s speed=1.15x    size=   38400KiB time=00:03:44.15 bitrate=1403.4kbits/s speed=1.15x    size=   38656KiB time=00:03:44.91 bitrate=1408.0kbits/s speed=1.15x    size=   38656KiB time=00:03:45.77 bitrate=1402.6kbits/s speed=1.15x    size=   39168KiB time=00:03:47.39 bitrate=1411.0kbits/s speed=1.16x    size=   39168KiB time=00:03:48.17 bitrate=1406.2kbits/s speed=1.16x    size=   39424KiB time=00:03:49.01 bitrate=1410.2kbits/s speed=1.16x    size=   39424KiB time=00:03:49.69 bitrate=1406.0kbits/s speed=1.16x    size=   39680KiB time=00:03:50.55 bitrate=1409.9kbits/s speed=1.16x    size=   39680KiB time=00:03:50.97 bitrate=1407.3kbits/s speed=1.16x    size=   39680KiB time=00:03:51.23 bitrate=1405.7kbits/s speed=1.16x    size=   39680KiB time=00:03:51.23 bitrate=1405.7kbits/s speed=1.16x    size=   39680KiB time=00:03:51.23 bitrate=1405.7kbits/s speed=1.15x    size=   39680KiB time=00:03:51.23 bitrate=1405.7kbits/s speed=1.15x    size=   39680KiB time=00:03:51.23 bitrate=1405.7kbits/s speed=1.15x    size=   39680KiB time=00:03:51.23 bitrate=1405.7kbits/s speed=1.14x    size=   39680KiB time=00:03:51.23 bitrate=1405.7kbits/s speed=1.14x    size=   39936KiB time=00:03:52.09 bitrate=1409.6kbits/s speed=1.14x    size=   39936KiB time=00:03:52.85 bitrate=1405.0kbits/s speed=1.14x    size=   40192KiB time=00:03:54.47 bitrate=1404.2kbits/s speed=1.15x    size=   40448KiB time=00:03:55.33 bitrate=1408.0kbits/s speed=1.15x    size=   40448KiB time=00:03:56.09 bitrate=1403.5kbits/s speed=1.15x    size=   40704KiB time=00:03:56.95 bitrate=1407.2kbits/s speed=1.15x    size=   40704KiB time=00:03:57.29 bitrate=1405.2kbits/s speed=1.15x    size=   40704KiB time=00:03:57.29 bitrate=1405.2kbits/s speed=1.15x    size=   40704KiB time=00:03:57.29 bitrate=1405.2kbits/s speed=1.15x    size=   40704KiB time=00:03:57.29 bitrate=1405.2kbits/s speed=1.14x    size=   40960KiB time=00:03:58.05 bitrate=1409.5kbits/s speed=1.14x    size=   40960KiB time=00:03:58.91 bitrate=1404.4kbits/s speed=1.15x    size=   41216KiB time=00:03:59.69 bitrate=1408.6kbits/s speed=1.15x    [out#0/wav @ 0x600003fa0000] video:0KiB audio:41344KiB subtitle:0KiB other streams:0KiB global headers:0KiB muxing overhead: 0.000184%
size=   41344KiB time=00:04:00.00 bitrate=1411.2kbits/s speed=1.15x    
